<?xml version="1.0" encoding="UTF-8"?>
<!DOCTYPE svg PUBLIC "-//W3C//DTD SVG 1.1//EN" "http://www.w3.org/Graphics/SVG/1.1/DTD/svg11.dtd">
<svg xmlns="http://www.w3.org/2000/svg" xmlns:xlink="http://www.w3.org/1999/xlink" version="1.1"
  width="400px" height="400px" viewBox="-10 -10 120 120" stroke-width="2" font-family="arial" font-size="5">
    <circle cx="50" cy="50" r="50" stroke="grey" stroke-width="1" fill="black"/>
    <circle cx="50" cy="50" r="3" fill="grey"/>
    <path d="M 21.716 78.284 A 40 40 0 0 1 15.359 70" stroke="red" fill="none"/>
      <path d="M 15.359 70 L 19.689 67.5 L 21 67.5" stroke="grey" stroke-width="0.5"/>
      <text x="22" y="67.5" fill="grey" dominant-baseline="middle">alertLower</text>
    <path d="M 15.359 70 A 40 40 0 0 1 10 50" stroke="orange" fill="none"/>
      <path d="M 10 50 L 15 50" stroke="grey" stroke-width="0.5"/>
      <text x="16" y="50" fill="grey" dominant-baseline="middle">warnLower</text>
    <path d="M 10 50 A 40 40 0 0 1 30 15.359" stroke="green" fill="none"/>
      <path d="M 30 15.359 L 32.5 19.689" stroke="grey" stroke-width="0.5"/>
      <text x="28" y="22" fill="grey" dominant-baseline="middle">nominalMin</text>
    <path d="M 30 15.359 A 40 40 0 0 1 70 15.359" stroke="white" fill="none"/>
      <path d="M 70 15.359 L 65 24.019" stroke="grey" stroke-width="0.5"/>
      <text x="50" y="28" fill="grey" dominant-baseline="middle">nominalMax</text>
    <path d="M 70 15.359 A 40 40 0 0 1 90 50" stroke="green" fill="none"/>
      <path d="M 90 50 L 85 50" stroke="grey" stroke-width="0.5"/>
      <text x="84" y="50" fill="grey" dominant-baseline="middle" text-anchor="end">warnUpper</text>
    <path d="M 90 50 A 40 40 0 0 1 84.641 70" stroke="orange" fill="none"/>
      <path d="M 84.641 70 L 80.311 67.5 L 79 67.5" stroke="grey" stroke-width="0.5"/>
      <text x="78" y="67.5" fill="grey" dominant-baseline="middle" text-anchor="end">alertUpper</text>
    <path d="M 84.641 70 A 40 40 0 0 1 78.284 78.284" stroke="red" fill="none"/>
</svg>